# xmcd
#
# Track frame offsets: 
#        182
#        12895
#        26657
#        42035
#        58570
#        71152
#        84220
#        99780
#        111520
#        123870
#
# Disc length: 1791 seconds
#
# Revision: 0
# Processed by: cddbd v1.5.2PL0 Copyright (c) Steve Scherf et al.
# Submitted via: ExactAudioCopy v0.99pb1
#
DISCID=7406fd0a
DTITLE=Barry White - Under the Influence of Love
DYEAR=1995
DGENRE=R&B
TTITLE0=I've Got the World to Hold Me Up
TTITLE1=Under the Influence of Love
TTITLE2=your Heart and Soul
TTITLE3=Long Black Veil
TTITLE4=All in the Run of a Day
TTITLE5=Fragile Handle With Care
TTITLE6=Come on in Love
TTITLE7=Where Can I Turn to
TTITLE8=Out in the Shadows of Love
TTITLE9=I Owe it All to You
EXTD=
EXTT0=
EXTT1=
EXTT2=
EXTT3=
EXTT4=
EXTT5=
EXTT6=
EXTT7=
EXTT8=
EXTT9=
PLAYORDER=
